# xmcd
#
# Track frame offsets:
#	150
#	14175
#	25132
#	41627
#	56652
#	70817
#	84030
#	100940
#	111400
#	127512
#	149030
#	160542
#
# Disc length: 2381 seconds
#
# Revision: 0
# Processed by: cddbd v1.4PL0 Copyright (c) Steve Scherf et al.
# Submitted via: dBpowerAMP V4.0
#
DISCID=9b094b0c
DTITLE=Leslie Gail Brooks - Passion speaks louder than words
DYEAR=1900
DGENRE=Country
TTITLE0=Margarita grin/Leslie Gail Brooks
TTITLE1=Read between your lies/Leslie Gail Brooks
TTITLE2=Passion speaks louder than words/Leslie Gail Brooks
TTITLE3=Lookin back on lukenbach/Leslie Gail Brooks
TTITLE4=Louisiana bayou man/Leslie Gail Brooks
TTITLE5=Skyscraper days and Honkytonk nights/Leslie Gail Brooks
TTITLE6=How do you love again/Leslie Gail Brooks
TTITLE7=What you See'Em do/Leslie Gail Brooks
TTITLE8=Your love was worth the wait/Leslie Gail Brooks
TTITLE9=Twister alley/Leslie Gail Brooks
TTITLE10=Colorado mountains/Leslie Gail Brooks
TTITLE11=Damn this river of tears/Leslie Gail Brooks
EXTD=Zachariah records
EXTT0=
EXTT1=
EXTT2=
EXTT3=
EXTT4=
EXTT5=
EXTT6=
EXTT7=
EXTT8=
EXTT9=
EXTT10=
EXTT11=
PLAYORDER=
